<svg xmlns="http://www.w3.org/2000/svg" width="21" height="21" viewBox="0 0 21 21" fill="none">
    <path d="M18.0071 14.1833V17.1301C18.0071 17.5676 17.6688 17.9306 17.2325 17.9614C16.868 17.9872 16.5707 18 16.3404 18C8.97658 18 3.00708 12.0305 3.00708 4.66667C3.00708 4.43642 3.01996 4.13906 3.04571 3.77458C3.07656 3.33823 3.43953 3 3.87696 3H6.82383C7.03773 3 7.21688 3.16202 7.23835 3.37483C7.25764 3.56589 7.27556 3.71928 7.29214 3.83502C7.4607 5.01227 7.80502 6.1328 8.29766 7.16919C8.37674 7.33554 8.32517 7.53466 8.17529 7.64172L6.3767 8.9265C7.47168 11.4843 9.52283 13.5354 12.0806 14.6304L13.363 12.8349C13.4714 12.6832 13.6729 12.6311 13.8412 12.711C14.8776 13.2032 15.998 13.5472 17.1751 13.7153C17.2901 13.7318 17.4425 13.7496 17.6322 13.7687C17.8451 13.7902 18.0071 13.9694 18.0071 14.1833Z" fill="black"/>
  </svg>